<svg width="36" height="27" viewBox="0 0 36 27" fill="none" xmlns="http://www.w3.org/2000/svg">
<path d="M10.5 -1.66893e-06C12.4333 -1.66893e-06 13.9667 0.699997 15.1 2.1C16.2333 3.5 16.8 5.4 16.8 7.8C16.8 10.2 16.3 12.5333 15.3 14.8C14.3667 17 13.2 18.8 11.8 20.2C10.4667 21.6 9.03333 22.8 7.5 23.8C4.7 25.7333 2.73333 26.7 1.6 26.7C1.33333 26.7 1 26.3333 0.6 25.6C0.2 24.8 7.07805e-08 24.1333 7.07805e-08 23.6C4.73333 21.4 7.26667 18.0333 7.6 13.5L3.3 7.3C3.3 5.03333 4 3.26666 5.4 2C6.86667 0.666664 8.56667 -1.66893e-06 10.5 -1.66893e-06ZM29.3 -1.66893e-06C31.2333 -1.66893e-06 32.7667 0.699997 33.9 2.1C35.0333 3.5 35.6 5.4 35.6 7.8C35.6 10.2 35.1 12.5333 34.1 14.8C33.1667 17 32 18.8 30.6 20.2C29.2667 21.6 27.8333 22.8 26.3 23.8C23.5 25.7333 21.5333 26.7 20.4 26.7C20.1333 26.7 19.8 26.3333 19.4 25.6C19 24.8 18.8 24.1333 18.8 23.6C23.5333 21.4 26.0667 18.0333 26.4 13.5L22.1 7.3C22.1 5.03333 22.8 3.26666 24.2 2C25.6667 0.666664 27.3667 -1.66893e-06 29.3 -1.66893e-06Z" fill="url(#paint0_linear_1998_293)"/>
<defs>
<linearGradient id="paint0_linear_1998_293" x1="19.5" y1="-23" x2="52.5" y2="92" gradientUnits="userSpaceOnUse">
<stop offset="0.151071" stop-color="#FF9A01"/>
<stop offset="0.999656" stop-color="#FF2912"/>
</linearGradient>
</defs>
</svg>
