<svg width="40" height="40" viewBox="0 0 40 40" fill="none" xmlns="http://www.w3.org/2000/svg">
<path d="M31.6666 6.66699H8.33331C7.00723 6.66699 5.73546 7.19378 4.79778 8.13146C3.8601 9.06914 3.33331 10.3409 3.33331 11.667V28.3337C3.33331 29.6597 3.8601 30.9315 4.79778 31.8692C5.73546 32.8069 7.00723 33.3337 8.33331 33.3337H31.6666C32.9927 33.3337 34.2645 32.8069 35.2022 31.8692C36.1399 30.9315 36.6666 29.6597 36.6666 28.3337V11.667C36.6666 10.3409 36.1399 9.06914 35.2022 8.13146C34.2645 7.19378 32.9927 6.66699 31.6666 6.66699ZM30.9833 10.0003L21.1833 19.8003C21.0284 19.9565 20.844 20.0805 20.6409 20.1651C20.4378 20.2498 20.22 20.2933 20 20.2933C19.78 20.2933 19.5621 20.2498 19.359 20.1651C19.1559 20.0805 18.9716 19.9565 18.8166 19.8003L9.01665 10.0003H30.9833ZM33.3333 28.3337C33.3333 28.7757 33.1577 29.1996 32.8452 29.5122C32.5326 29.8247 32.1087 30.0003 31.6666 30.0003H8.33331C7.89129 30.0003 7.46736 29.8247 7.1548 29.5122C6.84224 29.1996 6.66665 28.7757 6.66665 28.3337V12.3503L16.4666 22.1503C17.4041 23.0867 18.675 23.6126 20 23.6126C21.325 23.6126 22.5958 23.0867 23.5333 22.1503L33.3333 12.3503V28.3337Z" fill="#FF2912"/>
</svg>
