<svg width="40" height="40" viewBox="0 0 40 40" fill="none" xmlns="http://www.w3.org/2000/svg">
<path d="M36.9328 21.7819C36.6923 21.5408 36.3907 21.3699 36.0603 21.2873C35.73 21.2047 35.3834 21.2136 35.0578 21.3131C32.783 21.9998 30.3645 22.0567 28.0599 21.4775C25.7554 20.8984 23.6511 19.705 21.9711 18.0245C20.2912 16.3439 19.0986 14.2391 18.5204 11.9343C17.9421 9.62957 17.9999 7.21109 18.6875 4.93654C18.7878 4.61077 18.7974 4.26381 18.7153 3.93298C18.6331 3.60215 18.4624 3.29997 18.2213 3.05894C17.9803 2.81791 17.6781 2.64714 17.3473 2.56501C17.0165 2.48288 16.6695 2.49248 16.3437 2.59279C12.9225 3.64435 9.92012 5.74835 7.76405 8.60529C5.87858 11.1114 4.72878 14.0933 4.44367 17.2165C4.15855 20.3396 4.7494 23.4804 6.14992 26.2865C7.55043 29.0926 9.7052 31.4528 12.3724 33.1025C15.0397 34.7521 18.1138 35.6258 21.25 35.6256C24.9115 35.6364 28.4754 34.4458 31.3953 32.2365C34.2507 30.0783 36.3525 27.0743 37.4015 23.6522C37.5001 23.3272 37.5086 22.9815 37.426 22.6521C37.3434 22.3227 37.173 22.0219 36.9328 21.7819ZM29.139 29.2412C26.6117 31.1438 23.4822 32.0696 20.3265 31.8482C17.1708 31.6268 14.2013 30.2731 11.9644 28.0362C9.72752 25.7993 8.3738 22.8297 8.15238 19.6741C7.93096 16.5184 8.85675 13.3889 10.7594 10.8615C11.7605 9.53727 13.0012 8.4126 14.4172 7.54592C14.389 7.94592 14.375 8.34748 14.375 8.75061C14.3799 13.2246 16.1594 17.514 19.323 20.6776C22.4866 23.8412 26.776 25.6206 31.25 25.6256C31.6531 25.6256 32.0547 25.6115 32.4547 25.5834C31.5884 26.9997 30.4637 28.2405 29.139 29.2412Z" fill="#36FFD6"/>
</svg>
