<svg width="37" height="27" viewBox="0 0 37 27" fill="none" xmlns="http://www.w3.org/2000/svg">
<path d="M7.2 26.7C5.26667 26.7 3.73333 26 2.6 24.6C1.46667 23.2 0.9 21.3 0.9 18.9C0.9 16.5 1.36667 14.2 2.3 12C3.3 9.73333 4.46667 7.9 5.8 6.5C7.2 5.1 8.66667 3.86666 10.2 2.8C13 0.933332 14.9667 -1.66893e-06 16.1 -1.66893e-06C16.3667 -1.66893e-06 16.7 0.399997 17.1 1.19999C17.5 1.93333 17.7 2.56666 17.7 3.09999C12.9667 5.3 10.4333 8.66666 10.1 13.2L14.4 19.4C14.4 21.6667 13.6667 23.4667 12.2 24.8C10.8 26.0667 9.13333 26.7 7.2 26.7ZM26 26.7C24.0667 26.7 22.5333 26 21.4 24.6C20.2667 23.2 19.7 21.3 19.7 18.9C19.7 16.5 20.1667 14.2 21.1 12C22.1 9.73333 23.2667 7.9 24.6 6.5C26 5.1 27.4667 3.86666 29 2.8C31.8 0.933332 33.7667 -1.66893e-06 34.9 -1.66893e-06C35.1667 -1.66893e-06 35.5 0.399997 35.9 1.19999C36.3 1.93333 36.5 2.56666 36.5 3.09999C31.7667 5.3 29.2333 8.66666 28.9 13.2L33.2 19.4C33.2 21.6667 32.4667 23.4667 31 24.8C29.6 26.0667 27.9333 26.7 26 26.7Z" fill="url(#paint0_linear_1998_292)"/>
<defs>
<linearGradient id="paint0_linear_1998_292" x1="16.5" y1="-23" x2="45.5" y2="90.5" gradientUnits="userSpaceOnUse">
<stop stop-color="#FF2327"/>
<stop offset="0.531241" stop-color="#FF982F"/>
</linearGradient>
</defs>
</svg>
