<svg width="23" height="22" viewBox="0 0 23 22" xmlns="http://www.w3.org/2000/svg">
<path d="M13.7152 20.2167C14.6621 20.8276 15.7904 21.0938 16.9105 20.9706C18.0306 20.8474 19.0742 20.3422 19.8656 19.5401L20.5576 18.8636C20.8609 18.5533 21.0308 18.1366 21.0308 17.7027C21.0308 17.2688 20.8609 16.8521 20.5576 16.5418L17.6207 13.6357C17.313 13.3333 16.8989 13.1639 16.4675 13.1639C16.0361 13.1639 15.622 13.3333 15.3143 13.6357C15.004 13.9391 14.5873 14.1089 14.1534 14.1089C13.7195 14.1089 13.3028 13.9391 12.9925 13.6357L8.37966 9.02287C8.22578 8.87123 8.10358 8.6905 8.02018 8.49121C7.93677 8.29191 7.89382 8.07802 7.89382 7.86198C7.89382 7.64593 7.93677 7.43204 8.02018 7.23275C8.10358 7.03345 8.22578 6.85272 8.37966 6.70108C8.68204 6.3934 8.85148 5.97926 8.85148 5.54787C8.85148 5.11648 8.68204 4.70234 8.37966 4.39466L5.4582 1.4732C5.14792 1.16985 4.73123 1 4.2973 1C3.86337 1 3.44668 1.16985 3.1364 1.4732L2.45985 2.16512C1.65775 2.9566 1.15263 4.00011 1.02942 5.12021C0.906206 6.24031 1.17242 7.36867 1.7833 8.31557C4.96623 13.0064 9.01614 17.0459 13.7152 20.2167Z" stroke="rgba(121, 251, 243, 1.00)" stroke-width="2" stroke-linecap="round" stroke-linejoin="round"/>
</svg>
